<svg width="512" height="512" viewBox="0 0 512 512" xmlns="http://www.w3.org/2000/svg">
  <rect width="512" height="512" fill="#000000"/>
  <g transform="translate(76, 148) scale(2.4) translate(-101, -173)">
    <g transform="matrix(1 0 0 0.906777 6.16 41.3411)">
      <rect fill="#e6e6e6" height="77.52" stroke="#e6e6e6" stroke-width="5" transform="matrix(1.72339 0 0 0.822079 -137.704 97.6084)" width="14.22" x="160.14" y="96.1"/>
      <ellipse cx="286.74" cy="174.37" fill="#e6e6e6" rx="12.8" ry="36.98" stroke="#e6e6e6" stroke-width="5" transform="matrix(1.08293 0 0 0.458762 -159.907 95.0798)"/>
    </g>
    <g transform="matrix(1 0 0 1.01472 44.581 15.4022)">
      <rect fill="#e6e6e6" height="77.52" stroke="#e6e6e6" stroke-width="5" transform="matrix(1.72339 0 0 0.822079 -137.704 97.6084)" width="14.22" x="160.14" y="96.1"/>
      <ellipse cx="286.74" cy="174.37" fill="#e6e6e6" rx="12.8" ry="36.98" stroke="#e6e6e6" stroke-width="5" transform="matrix(1.08293 0 0 0.458762 -159.907 95.0798)"/>
    </g>
    <g transform="matrix(1 0 0 0.721437 -32.2659 85.895)">
      <rect fill="#e6e6e6" height="77.52" stroke="#e6e6e6" stroke-width="5" transform="matrix(1.72339 0 0 0.822079 -137.704 97.6084)" width="14.22" x="160.14" y="96.1"/>
      <ellipse cx="286.74" cy="174.37" fill="#e6e6e6" rx="12.8" ry="36.98" stroke="#e6e6e6" stroke-width="5" transform="matrix(1.08293 0 0 0.458762 -159.907 95.0798)"/>
    </g>
    <g transform="matrix(1 0 0 0.863547 82.9951 51.7427)">
      <rect fill="#e6e6e6" height="77.52" stroke="#e6e6e6" stroke-width="5" transform="matrix(1.72339 0 0 0.822079 -137.704 97.6084)" width="14.22" x="160.14" y="96.1"/>
      <ellipse cx="286.74" cy="174.37" fill="#e6e6e6" rx="12.8" ry="36.98" stroke="#e6e6e6" stroke-width="5" transform="matrix(1.08293 0 0 0.458762 -159.907 95.0798)"/>
    </g>
  </g>
</svg>
