<?xml version="1.0"?>
<svg width="150" height="90" viewBox="101 173 150 90" xmlns="http://www.w3.org/2000/svg" xmlns:svg="http://www.w3.org/2000/svg">
 <!-- Created with SVG-edit - https://github.com/SVG-Edit/svgedit-->
 <g class="layer">
  <title>Layer 1</title>
  <g id="svg_4" transform="matrix(1 0 0 0.906777 6.16 41.3411)">
   <rect fill="#191919" height="77.52" id="svg_2" stroke="#191919" stroke-width="5" transform="matrix(1.72339 0 0 0.822079 -137.704 97.6084)" width="14.22" x="160.14" y="96.1"/>
   <ellipse cx="286.74" cy="174.37" fill="#191919" id="svg_3" rx="12.8" ry="36.98" stroke="#191919" stroke-width="5" transform="matrix(1.08293 0 0 0.458762 -159.907 95.0798)"/>
  </g>
  <g id="svg_5" transform="matrix(1 0 0 1.01472 44.581 15.4022)">
   <rect fill="#191919" height="77.52" id="svg_6" stroke="#191919" stroke-width="5" transform="matrix(1.72339 0 0 0.822079 -137.704 97.6084)" width="14.22" x="160.14" y="96.1"/>
   <ellipse cx="286.74" cy="174.37" fill="#191919" id="svg_7" rx="12.8" ry="36.98" stroke="#191919" stroke-width="5" transform="matrix(1.08293 0 0 0.458762 -159.907 95.0798)"/>
  </g>
  <g id="svg_8" transform="matrix(1 0 0 0.721437 -32.2659 85.895)">
   <rect fill="#191919" height="77.52" id="svg_9" stroke="#191919" stroke-width="5" transform="matrix(1.72339 0 0 0.822079 -137.704 97.6084)" width="14.22" x="160.14" y="96.1"/>
   <ellipse cx="286.74" cy="174.37" fill="#191919" id="svg_10" rx="12.8" ry="36.98" stroke="#191919" stroke-width="5" transform="matrix(1.08293 0 0 0.458762 -159.907 95.0798)"/>
  </g>
  <g id="svg_11" transform="matrix(1 0 0 0.863547 82.9951 51.7427)">
   <rect fill="#191919" height="77.52" id="svg_12" stroke="#191919" stroke-width="5" transform="matrix(1.72339 0 0 0.822079 -137.704 97.6084)" width="14.22" x="160.14" y="96.1"/>
   <ellipse cx="286.74" cy="174.37" fill="#191919" id="svg_13" rx="12.8" ry="36.98" stroke="#191919" stroke-width="5" transform="matrix(1.08293 0 0 0.458762 -159.907 95.0798)"/>
  </g>
 </g>
</svg>